<?xml version="1.0" encoding="UTF-8"?>
<svg id="Layer_1" data-name="Layer 1" xmlns="http://www.w3.org/2000/svg" version="1.1" viewBox="0 0 125.2 125.2">
  <defs>
    <style>
      .cls-1 {
        fill: #212122;
        stroke-width: 0px;
      }
    </style>
  </defs>
  <path class="cls-1" d="M22.7,87.2c-3.3,0-6.3-.6-9.1-1.8s-5.2-2.9-7.2-5.1c-2-2.2-3.6-4.8-4.7-7.8C.6,69.5,0,66.2,0,62.6s.6-6.9,1.7-9.9c1.1-3,2.7-5.6,4.7-7.8,2-2.2,4.4-3.9,7.2-5.1,2.8-1.2,5.8-1.8,9.1-1.8s6.8.7,9.7,2.2c2.9,1.5,5.2,3.5,7,6.2,1.8,2.7,3,5.8,3.4,9.3h-5.5c-.5-3.9-2.1-7.1-4.7-9.3s-5.9-3.4-9.9-3.4-6.4.8-9,2.5c-2.6,1.7-4.6,4-6,6.9-1.4,3-2.1,6.4-2.1,10.3s.7,7.3,2.1,10.3c1.4,3,3.4,5.2,6,6.9,2.6,1.7,5.5,2.5,8.9,2.5s7.5-1.2,10.1-3.5,4.2-5.4,4.7-9.3h5.5c-.4,3.5-1.6,6.6-3.4,9.3s-4.2,4.7-7,6.2-6.1,2.2-9.7,2.2h0Z"/>
  <path class="cls-1" d="M50,86.5v-6.8h6.8v6.8h-6.8Z"/>
  <path class="cls-1" d="M65.8,86.5l18.5-47.8h4.8l-18,47.8h-5.2ZM75,67.2h25v4.8h-25s0-4.8,0-4.8ZM103.8,86.5l-18-47.8h5.1l18.5,47.8h-5.6Z"/>
  <path class="cls-1" d="M118.4,86.5v-6.8h6.8v6.8h-6.8Z"/>
</svg>